# Blender 3.4.1
# www.blender.org
mtllib rock.mtl
o rock_low
v 2.048867 -2.391908 2.354788
v 2.177046 -1.287039 2.097805
v 0.275700 -0.443424 1.922025
v 0.137900 -1.561156 2.236835
v 1.426400 -0.293880 1.841975
v -0.638277 -0.108146 1.860224
v 1.619931 -2.474667 2.369066
v 1.874791 -2.593039 2.224439
v 2.374974 0.099651 1.567312
v 2.182626 0.239468 1.683003
v -2.171494 -0.269028 1.935508
v 0.261708 1.341287 1.432212
v 1.347842 1.588201 1.330852
v -2.417199 0.374529 1.703741
v 2.311982 1.632933 1.289807
v 1.051093 1.710325 1.295662
v -1.557234 1.649772 1.147557
v -1.203425 0.603428 1.684013
v -0.120116 2.080185 1.041005
v -1.970660 2.614263 0.648599
v -2.644560 -0.567320 1.547368
v -2.341642 3.268862 0.280590
v 2.639872 2.355223 0.728727
v -2.673327 -1.367620 0.864283
v -0.866277 2.832297 0.619883
v 2.067759 2.772675 0.848622
v -2.668377 0.129785 1.601070
v -2.587312 2.789894 0.317138
v 2.129539 -2.432790 1.214476
v 2.553671 2.756223 -0.032878
v -2.800804 0.428295 0.729007
v 1.696038 3.228519 -0.446275
v 0.111157 3.785368 0.208867
v -2.290671 5.057591 -0.698161
v -2.775956 2.137089 -0.238605
v -0.371838 4.078688 -0.113037
v -3.047237 -0.775854 0.285762
v 0.321049 4.060948 -1.478176
v -1.811368 5.099136 -1.855541
v 2.177056 -2.398007 -0.104387
v -2.975055 0.705617 -0.364984
v 2.554638 2.988531 -1.152210
v -2.594166 -2.372684 0.171478
v -2.436555 4.874187 -0.526861
v -3.277531 -2.112128 -1.538460
v -2.853421 2.986694 -1.220842
v 1.072808 3.946242 -2.486825
v -0.950673 4.853605 -2.470063
v -3.277221 -0.504625 -1.084922
v -2.800474 5.126514 -1.531605
v -3.719882 -1.822517 -2.429573
v -2.833333 5.587837 -2.278005
v 2.491417 3.241604 -2.242998
v -2.368094 5.497872 -2.572055
v 1.754553 3.658384 -2.576619
v 2.368584 -2.163771 -2.182993
v -3.524665 -0.434867 -2.369646
v 1.772615 -2.186746 -2.533645
v -3.055929 5.190023 -2.262633
v -3.168048 3.988980 -2.314881
v 2.415663 0.559748 -2.597369
v 0.561186 4.198139 -2.526456
v 2.271850 -1.689232 -2.577029
v -1.356413 -2.057279 -2.587218
v -2.927784 5.303692 -2.617453
v -3.124610 4.270692 -2.630516
v -0.127389 4.353471 -2.640354
v 2.440318 1.979851 -2.632325
v -3.568508 -0.892483 -2.618540
v -3.512362 -1.970832 -2.557277
vn -0.1214 -0.4882 0.8642
vn 0.2758 -0.9042 0.3261
vn 0.6382 -0.2810 0.7168
vn 0.6924 0.1059 0.7137
vn 0.0259 0.2648 0.9639
vn -0.2025 -0.1564 0.9667
vn 0.0264 0.2620 0.9647
vn -0.2992 -0.0486 0.9529
vn 0.0323 0.2659 0.9635
vn -0.0225 0.3474 0.9374
vn 0.3181 0.2352 0.9184
vn 0.8465 -0.3357 -0.4133
vn 0.8493 -0.5270 0.0317
vn -0.0155 0.3579 0.9336
vn -0.7177 -0.2962 0.6302
vn 0.0282 0.3115 0.9498
vn -0.0657 0.4371 0.8970
vn -0.3570 0.3343 0.8722
vn -0.5172 -0.8027 0.2970
vn -0.0116 0.3782 0.9257
vn -0.3279 0.4149 0.8487
vn -0.7988 0.1126 0.5910
vn 0.3122 0.6838 0.6596
vn 0.4189 0.2730 0.8660
vn 0.8577 0.3306 0.3938
vn -0.8402 0.2585 0.4766
vn -0.0639 0.4449 0.8933
vn -0.0823 0.4445 0.8920
vn -0.9740 0.1248 0.1892
vn -0.0616 0.4401 0.8958
vn -0.9613 -0.0713 0.2662
vn -0.8411 -0.3427 0.4186
vn 0.0985 -0.6916 -0.7155
vn 0.1902 0.7613 0.6199
vn 0.3999 0.8955 0.1951
vn -0.9738 0.1249 0.1901
vn 0.6592 -0.7517 -0.0199
vn -0.5405 0.5175 0.6634
vn -0.0324 0.8869 0.4609
vn -0.9588 0.1027 0.2649
vn -0.9753 0.1213 0.1846
vn 0.4014 0.8942 0.1983
vn 0.7251 0.6685 0.1656
vn 0.8497 0.5212 0.0796
vn -0.9084 -0.3283 -0.2589
vn -0.9728 0.1296 0.1919
vn 0.3948 0.8930 0.2162
vn 0.3949 0.8977 0.1954
vn -0.8300 0.3875 0.4011
vn 0.7184 -0.6410 -0.2701
vn -0.0304 -0.6575 -0.7528
vn -0.5183 -0.8520 0.0745
vn 0.3889 0.9200 -0.0481
vn 0.4177 0.8995 -0.1281
vn 0.4017 0.6850 -0.6079
vn -0.3964 0.9181 -0.0019
vn -0.9537 0.2927 0.0688
vn -0.9884 0.1086 0.1066
vn -0.6592 0.0572 -0.7498
vn -0.3519 -0.6561 -0.6676
vn -0.5195 0.3785 -0.7661
vn 0.4078 0.7854 -0.4657
vn -0.6809 0.0805 -0.7279
vn -0.9872 0.0802 0.1381
vn 0.6828 0.0114 -0.7305
vn 0.5450 -0.1546 -0.8240
vn 0.2020 0.7761 -0.5973
vn 0.1466 0.3611 -0.9209
vn 0.7954 -0.0323 -0.6052
vn 0.8001 0.5233 -0.2931
vt 0.733612 0.009247
vt 0.001877 0.740417
vt 0.015427 0.791779
vt 0.734009 0.081635
vt 0.329239 0.488075
vt 0.607239 0.122467
vt 0.606476 0.047913
vt 0.679230 0.141235
vt 0.546814 0.137390
vt 0.000992 0.715790
vt 0.706879 0.000977
vt 0.010666 0.723816
vt 0.736206 0.177490
vt 0.327881 0.577629
vt 0.723480 0.181854
vt 0.450531 0.115387
vt 0.593597 0.239563
vt 0.660797 0.264160
vt 0.430115 0.157166
vt 0.721710 0.274506
vt 0.641052 0.270142
vt 0.475037 0.251587
vt 0.505829 0.179718
vt 0.563385 0.289673
vt 0.441040 0.317322
vt 0.420990 0.103088
vt 0.395958 0.884705
vt 0.412140 0.361969
vt 0.736206 0.332428
vt 0.329239 0.722870
vt 0.853394 0.935791
vt 0.093536 0.963745
vt 0.438660 0.935669
vt 0.509857 0.338684
vt 0.697601 0.350525
vt 0.872284 0.895264
vt 0.415314 0.143158
vt 0.393417 0.840454
vt 0.475571 0.670166
vt 0.399628 0.330933
vt 0.074936 0.744293
vt 0.809143 0.906677
vt 0.450089 0.822021
vt 0.801056 0.839172
vt 0.564697 0.411499
vt 0.872284 0.748474
vt 0.400970 0.490784
vt 0.538055 0.523621
vt 0.864899 0.565369
vt 0.512169 0.712769
vt 0.862335 0.708130
vt 0.479797 0.900146
vt 0.765686 0.722351
vt 0.785126 0.569946
vt 0.159195 0.749786
vt 0.521194 0.805115
vt 0.212097 0.987610
vt 0.741119 0.880371
vt 0.139343 0.513763
vt 0.430817 0.027100
vt 0.480583 0.999023
vt 0.393402 0.474976
vt 0.528755 0.536255
vt 0.247681 0.492676
vt 0.596207 0.986145
vt 0.575615 0.658875
vt 0.324158 0.629944
vt 0.689514 0.748840
vt 0.730713 0.612976
vt 0.325897 0.488068
vt 0.568954 0.883911
vt 0.596352 0.522156
vt 0.657562 0.970215
vt 0.000977 0.477173
vt 0.644127 0.492737
vt 0.038513 0.000977
vt 0.779663 0.492737
vt 0.281143 0.996155
vt 0.676117 0.850464
vt 0.385101 0.137085
vt 0.068085 0.005554
vt 0.752655 0.515564
vt 0.670502 0.792603
vt 0.336456 0.112366
vt 0.291565 0.771515
vt 0.391449 0.483093
vt 0.652733 0.880615
vt 0.313782 0.741486
vt 0.352936 0.486084
vt 0.645332 0.519470
vt 0.648903 0.596680
vt 0.310867 0.884460
vt 0.386810 0.308777
vt 0.697266 0.713074
vt 0.325897 0.593445
vt 0.315460 0.786407
vt 0.383514 0.453003
vt 0.315460 0.591583
vt 0.152496 0.486023
vt 0.032776 0.019409
vt 0.666336 0.511353
vt 0.022858 0.085999
vt 0.668526 0.578369
vt 0.214264 0.072876
vt 0.703796 0.668762
vt 0.317413 0.548920
vt 0.309357 0.943115
vt 0.384613 0.217957
vt 0.668526 0.909973
vt 0.007996 0.417297
vt 0.663147 0.978333
vt 0.312347 0.488068
vt 0.014465 0.486084
s 1
usemtl rock_og
f 7/10/1 8/12/2 1/2/3
f 2/4/4 5/8/5 4/7/6
f 4/7/6 6/9/7 11/16/8
f 4/7/6 3/6/9 6/9/7
f 18/23/10 11/16/8 6/9/7
f 10/15/11 2/4/4 9/13/12
f 18/23/10 6/9/7 3/6/9
f 2/3/4 1/2/3 29/41/13
f 12/17/14 18/23/10 3/6/9
f 11/16/8 21/26/15 4/7/6
f 13/18/16 12/17/14 3/6/9
f 13/18/16 5/8/5 10/15/11
f 18/23/10 17/22/17 14/19/18
f 43/60/19 7/11/1 4/7/6
f 12/17/14 13/18/16 16/21/20
f 43/59/19 8/12/2 7/10/1
f 22/28/21 27/37/22 14/19/18
f 26/35/23 16/21/20 13/18/16
f 15/20/24 9/13/12 23/29/25
f 22/28/21 28/40/26 27/37/22
f 25/34/27 20/25/28 17/22/17
f 27/38/22 28/39/26 31/43/29
f 17/22/17 19/24/30 25/34/27
f 37/52/31 21/27/15 27/38/22
f 24/33/32 21/27/15 37/52/31
f 2/3/4 29/41/13 23/32/25
f 43/59/19 58/88/33 8/12/2
f 33/45/34 25/34/27 26/35/23
f 26/36/23 32/44/35 33/46/34
f 33/45/34 20/25/28 25/34/27
f 41/56/36 37/52/31 31/43/29
f 23/32/25 29/41/13 40/55/37
f 44/62/38 22/28/21 33/45/34
f 34/47/39 44/62/38 33/45/34
f 28/39/26 46/66/40 35/50/41
f 32/44/35 38/53/42 33/46/34
f 30/42/43 23/31/25 42/58/44
f 44/63/38 46/66/40 28/39/26
f 43/61/19 37/52/31 51/73/45
f 49/71/46 37/52/31 41/56/36
f 34/49/39 36/51/47 39/54/48
f 41/56/36 35/50/41 46/66/40
f 34/48/39 50/72/49 44/63/38
f 56/85/50 40/55/37 58/88/33
f 64/98/51 43/59/19 45/64/52
f 47/68/53 38/53/42 32/44/35
f 43/59/19 64/98/51 58/88/33
f 36/51/47 38/53/42 48/69/54
f 42/58/44 55/83/55 32/44/35
f 48/69/54 39/54/48 36/51/47
f 34/48/39 52/75/56 50/72/49
f 50/72/49 52/75/56 59/90/57
f 51/73/45 57/87/58 69/109/59
f 49/71/46 46/66/40 57/87/58
f 70/111/60 45/65/52 51/73/45
f 70/112/60 64/98/51 45/64/52
f 65/101/61 59/90/57 52/75/56
f 62/94/62 48/69/54 38/53/42
f 59/90/57 66/103/63 60/91/64
f 57/87/58 66/103/63 69/109/59
f 68/108/65 63/97/66 58/89/33
f 68/108/65 58/89/33 64/99/51
f 54/81/67 65/100/61 52/76/56
f 54/81/67 66/102/63 65/100/61
f 54/81/67 67/104/68 66/102/63
f 47/67/53 67/106/68 62/95/62
f 55/83/55 67/105/68 47/68/53
f 68/108/65 66/102/63 67/104/68
f 67/104/68 55/84/55 68/108/65
f 66/102/63 68/108/65 69/110/59
f 68/108/65 70/113/60 69/110/59
f 7/11/1 1/1/3 4/7/6
f 2/4/4 4/7/6 1/1/3
f 3/6/9 4/7/6 5/8/5
f 1/2/3 8/12/2 29/41/13
f 27/37/22 11/16/8 14/19/18
f 10/15/11 5/8/5 2/4/4
f 11/16/8 18/23/10 14/19/18
f 27/37/22 21/26/15 11/16/8
f 13/18/16 3/6/9 5/8/5
f 9/13/12 15/20/24 10/15/11
f 15/20/24 13/18/16 10/15/11
f 21/26/15 43/60/19 4/7/6
f 12/17/14 17/22/17 18/23/10
f 19/24/30 17/22/17 12/17/14
f 20/25/28 14/19/18 17/22/17
f 22/28/21 14/19/18 20/25/28
f 15/20/24 26/35/23 13/18/16
f 26/35/23 15/20/24 23/29/25
f 19/24/30 12/17/14 16/21/20
f 24/33/32 43/61/19 21/27/15
f 23/30/25 9/14/12 2/5/4
f 31/43/29 37/52/31 27/38/22
f 16/21/20 26/35/23 19/24/30
f 19/24/30 26/35/23 25/34/27
f 35/50/41 31/43/29 28/39/26
f 23/31/25 30/42/43 26/36/23
f 26/36/23 30/42/43 32/44/35
f 41/56/36 31/43/29 35/50/41
f 8/12/2 58/88/33 40/55/37
f 28/40/26 22/28/21 44/62/38
f 20/25/28 33/45/34 22/28/21
f 34/49/39 33/46/34 36/51/47
f 37/52/31 49/71/46 51/73/45
f 30/42/43 42/58/44 32/44/35
f 38/53/42 36/51/47 33/46/34
f 44/63/38 50/72/49 46/66/40
f 45/65/52 43/61/19 51/73/45
f 56/85/50 23/32/25 40/55/37
f 41/56/36 46/66/40 49/71/46
f 23/32/25 56/85/50 61/92/69
f 57/87/58 51/73/45 49/71/46
f 55/83/55 47/68/53 32/44/35
f 42/57/44 23/32/25 68/107/65
f 53/78/70 42/57/44 68/107/65
f 61/92/69 68/107/65 23/32/25
f 38/53/42 47/68/53 62/94/62
f 39/54/48 54/82/67 34/49/39
f 34/49/39 54/82/67 52/77/56
f 60/91/64 57/87/58 46/66/40
f 53/79/70 55/83/55 42/58/44
f 50/72/49 59/90/57 60/91/64
f 50/72/49 60/91/64 46/66/40
f 48/69/54 54/82/67 39/54/48
f 66/103/63 57/87/58 60/91/64
f 61/92/69 56/85/50 63/96/66
f 54/82/67 48/69/54 67/105/68
f 68/108/65 61/93/69 63/97/66
f 70/113/60 68/108/65 64/99/51
f 59/90/57 65/101/61 66/103/63
f 48/70/54 62/95/62 67/106/68
f 55/84/55 53/80/70 68/108/65
f 51/74/45 69/110/59 70/113/60
f 29/41/13 8/12/2 40/55/37
f 37/52/31 43/61/19 24/33/32
f 58/89/33 63/97/66 56/86/50
