# File produced by Open Asset Import Library (http://www.assimp.sf.net)
# (assimp v3.1.128981410)

mtllib testexport.mtl

# vertex positions
v -48.608749 60.573540 -169.194763
v 65.379356 83.247658 -170.561340
v 28.986992 12.479471 -167.197220
v 96.859261 85.603745 -107.374809
v 93.530182 3.148975 -166.277710
v -6.366854 83.404648 -170.760986
v 41.129433 -16.592690 -166.066940
v -27.766922 -23.086035 -167.324463
v -81.012474 -47.232857 -165.524963
v -81.571068 -23.044037 -166.791260
v -57.192413 -96.816986 -163.753082
v 52.532692 -97.216393 -163.627701
v -30.940582 -95.324715 -130.886093
v -68.618546 -93.525757 -77.702362
v -1.379462 -94.315247 -104.212212
v 97.256630 -58.774849 -165.610428
v -81.057137 -11.472292 -158.089935
v -80.835442 31.644852 -55.820881
v -80.971992 75.571045 -170.713089
v -73.655388 82.826645 -170.618271
v 97.454956 -15.333985 -166.977051
v 97.163673 -94.677605 -98.006004
v 93.651703 -90.067017 16.838612
v 89.947884 -85.390198 136.226089
v -81.120506 33.962646 -47.732948
v 96.703148 88.471840 -37.680191
v -5.417164 90.202469 23.627022
v 96.684753 -21.426418 -8.588615
v 96.549591 -27.421469 -77.720772
v 96.729820 -88.183968 10.524014
v -81.960136 -89.655373 30.369617
v -74.123329 -91.673538 -32.015076
v 96.906853 87.034599 33.020729
v -76.110771 -89.250214 35.997009
v -81.593979 85.388680 -116.718330
v 96.591995 -66.841576 -164.492142
v 96.684570 -94.198967 -105.237778
v 93.021675 -88.200645 61.737988
v -21.243017 -87.606888 72.638588
v 20.083370 -88.888329 45.413311
v -82.034012 -88.925995 53.011513
v 96.721092 -34.256153 90.509132
v -81.072411 -87.611885 74.305069
v -81.198830 86.386505 -59.650185
v 96.311768 25.628838 51.944725
v 96.729355 16.581455 48.949802
v 96.697083 -82.859283 115.635269
v -81.065056 -20.065636 13.995981
v -33.870781 88.307091 -21.145378
v -81.250183 -84.734695 152.350983
v -80.924034 1.835748 20.917383
v -80.758080 18.569023 5.903684
v -81.240913 17.236332 -25.874060
v -81.777420 87.991371 -55.085648
v -28.617500 -84.039513 174.142136
v 12.943788 -85.414711 133.418091
v -80.152870 90.748680 19.151192
v -80.857376 -26.857243 31.129694
v -81.266388 -13.771497 116.222969
v -81.430359 27.557386 65.805206
v 90.450798 92.191330 79.738579
v 94.192871 90.609589 17.539736
v 58.843369 96.373253 166.747208
v 97.106819 50.256134 140.734695
v 97.393745 -50.574608 173.032944
v 86.897301 -83.693550 173.317184
v 97.179504 -74.607765 170.773529
v -80.857849 -56.388466 129.146851
v -81.026917 -66.962616 97.719925
v 97.175941 83.466446 69.244194
v 96.743828 84.720337 120.259834
v 87.675560 94.898270 127.570221
v -81.142326 -55.556065 172.747116
v 96.987564 -0.509669 170.275452
v 95.998123 -34.249142 171.537125
v 3.269979 -22.502285 171.606354
v -80.850906 82.190140 26.555729
v -81.650055 66.809212 167.735489
v -81.469856 92.528351 63.455673
v -81.616035 95.526344 150.298233
v -25.282356 96.369995 166.767975
v -81.772087 48.671974 169.615982
v -81.572830 8.721407 151.834045
v 26.838043 71.789589 167.426697
v -81.680931 1.293344 170.780899
v -75.515045 6.520520 170.120407
v -25.115242 28.958101 169.112244
v -37.957035 -21.587551 170.914856
v 31.513359 95.898964 167.263229
v -81.342155 28.435274 -168.833878
v -77.277107 -73.186295 35.027016
v 96.747528 -79.461624 133.479233
v -46.481773 92.046837 61.146080
v -79.271172 3.492802 -168.212097
v -67.845253 -11.787097 -163.083984

# UV coordinates
vt 0.216581 0.735148
vt 0.049457 0.768853
vt 0.102597 0.664803
vt 0.537477 0.002055
vt 0.536420 0.096568
vt 0.419065 0.005272
vt 0.154690 0.768853
vt 0.084684 0.622168
vt 0.185689 0.612505
vt 0.263719 0.576819
vt 0.264618 0.612347
vt 0.578013 0.002055
vt 0.738882 0.002219
vt 0.616518 0.050316
vt 0.228601 0.504123
vt 0.561266 0.128375
vt 0.659864 0.089472
vt 0.002186 0.560518
vt 0.141781 0.016086
vt 0.084605 0.168424
vt 0.013525 0.002591
vt 0.808135 0.802025
vt 0.807569 0.696782
vt 0.808135 0.598074
vt 0.007904 0.651287
vt 0.002055 0.624266
vt 0.808987 0.345229
vt 0.808904 0.176965
vt 0.808987 0.002055
vt 0.081669 0.180419
vt 0.193739 0.003133
vt 0.541587 0.697445
vt 0.541664 0.595153
vt 0.691091 0.787751
vt 0.373885 0.234962
vt 0.369082 0.133353
vt 0.391909 0.003393
vt 0.328173 0.002836
vt 0.803802 0.257995
vt 0.799197 0.267151
vt 0.804329 0.098552
vt 0.812559 0.598075
vt 0.812559 0.755804
vt 0.812246 0.689104
vt 0.536616 0.198799
vt 0.530434 0.302273
vt 0.550285 0.295278
vt 0.541700 0.287007
vt 0.553202 0.195448
vt 0.803458 0.582156
vt 0.792044 0.502982
vt 0.802641 0.502178
vt 0.316305 0.003962
vt 0.274950 0.259042
vt 0.272799 0.089146
vt 0.798283 0.333070
vt 0.793780 0.442414
vt 0.630749 0.349080
vt 0.691332 0.309102
vt 0.541587 0.320238
vt 0.349377 0.379347
vt 0.543020 0.351523
vt 0.004166 0.165972
vt 0.002272 0.082300
vt 0.439370 0.326354
vt 0.426272 0.321462
vt 0.276703 0.413296
vt 0.267305 0.287790
vt 0.164436 0.267769
vt 0.733021 0.722145
vt 0.542761 0.466086
vt 0.132761 0.279166
vt 0.107375 0.258121
vt 0.107447 0.211493
vt 0.002055 0.172773
vt 0.802603 0.665785
vt 0.619930 0.498068
vt 0.680875 0.438296
vt 0.800744 0.781545
vt 0.175398 0.292479
vt 0.267558 0.321014
vt 0.161185 0.417941
vt 0.097680 0.346441
vt 0.550222 0.869699
vt 0.545025 0.778489
vt 0.596213 0.997584
vt 0.470329 0.457883
vt 0.271668 0.719396
vt 0.287232 0.767821
vt 0.272098 0.754306
vt 0.789322 0.496878
vt 0.266921 0.352262
vt 0.224395 0.434416
vt 0.238041 0.387760
vt 0.523112 0.355132
vt 0.522025 0.429896
vt 0.554097 0.939984
vt 0.536771 0.440671
vt 0.537477 0.496457
vt 0.533585 0.725732
vt 0.533845 0.766195
vt 0.456683 0.767821
vt 0.394234 0.498165
vt 0.273631 0.695345
vt 0.409594 0.677690
vt 0.015371 0.292047
vt 0.046127 0.498074
vt 0.002356 0.346735
vt 0.802481 0.846572
vt 0.802304 0.973977
vt 0.719606 0.997945
vt 0.072803 0.499791
vt 0.130301 0.471429
vt 0.374541 0.539422
vt 0.327468 0.503551
vt 0.272008 0.645857
vt 0.534086 0.642353
vt 0.525014 0.634666
vt 0.225713 0.498366
vt 0.450969 0.601994
vt 0.470063 0.676064
vt 0.533706 0.546182
vt 0.367561 0.504160
vt 0.264464 0.687920
vt 0.264087 0.757118
vt 0.158202 0.002687
vt 0.803658 0.087976
vt 0.003147 0.548619
vt 0.067659 0.503902
vt 0.267255 0.128762
vt 0.267558 0.002101
vt 0.804793 0.002569
vt 0.253388 0.767768
vt 0.588119 0.502560
vt 0.082674 0.002646
vt 0.271668 0.099737
vt 0.536639 0.279652
vt 0.803818 0.412364
vt 0.243661 0.295409
vt 0.267304 0.295869
vt 0.814743 0.502178
vt 0.816139 0.593964
vt 0.809335 0.570363
vt 0.535481 0.370621
vt 0.280654 0.439631
vt 0.803458 0.672622
vt 0.285609 0.494561
vt 0.804010 0.438703
vt 0.804793 0.493633
vt 0.808904 0.384639
vt 0.811604 0.349340
vt 0.811604 0.408573
vt 0.751164 0.843008
vt 0.267263 0.466802
vt 0.002431 0.281665
vt 0.801570 0.791568
vt 0.450871 0.503124
vt 0.003037 0.474172
vt 0.142287 0.498771
vt 0.134868 0.497902
vt 0.533474 0.502275
vt 0.533980 0.572918
vt 0.004501 0.342180
vt 0.261331 0.651337
vt 0.264072 0.628708
vt 0.244600 0.628634
vt 0.119345 0.002055
vt 0.807569 0.593964
vt 0.271668 0.798491
vt 0.280613 0.771932
vt 0.280613 0.798956

# vertex normals
vn 0.009904 -0.043813 -0.998991
vn 0.325381 0.634203 -0.701365
vn -0.006772 -0.040882 -0.999141
vn 0.711459 0.690958 -0.128070
vn 0.765593 0.195802 -0.612804
vn 0.000961 0.968858 -0.247617
vn -0.004292 -0.032136 -0.999474
vn -0.002483 -0.031143 -0.999512
vn -0.724969 -0.170872 -0.667250
vn -0.677609 0.161534 -0.717463
vn -0.388737 -0.699498 -0.599655
vn 0.132430 -0.739048 -0.660507
vn 0.000714 -0.999124 0.041853
vn -0.532487 -0.845744 -0.034255
vn -0.002119 -0.999275 0.038015
vn 0.686770 -0.110432 -0.718437
vn -0.915829 0.050526 -0.398378
vn -0.998918 0.032368 -0.033400
vn -0.697375 0.246350 -0.673038
vn -0.254463 0.690166 -0.677436
vn 0.716739 0.007264 -0.697304
vn 0.852995 -0.520687 -0.035848
vn 0.771316 -0.634846 0.045178
vn 0.356271 -0.931264 0.076276
vn -0.999947 -0.001662 -0.010184
vn 0.703739 0.709904 -0.028066
vn 0.000338 0.999120 -0.041937
vn 0.999999 -0.001090 0.000320
vn 0.999719 -0.023678 0.001358
vn 0.893197 -0.448854 0.027017
vn -0.708051 -0.634496 0.309966
vn 0.478837 -0.873255 0.090224
vn 0.932152 0.361806 0.013730
vn -0.487632 -0.861473 0.141704
vn -0.712990 0.700366 -0.033652
vn 0.681954 -0.314878 -0.660145
vn 0.716029 -0.693740 -0.077638
vn 0.366179 -0.929505 0.043979
vn 0.000112 -0.999214 0.039650
vn -0.004301 -0.999237 0.038817
vn -0.720138 -0.690553 -0.067368
vn 0.999998 -0.001230 -0.001568
vn -0.688496 -0.722736 0.060211
vn -0.713203 0.690335 -0.121572
vn 0.999833 0.000211 0.018252
vn 0.999703 0.011768 0.021353
vn 0.861865 -0.505768 0.037249
vn -0.999953 0.006737 0.006909
vn 0.005927 0.999160 -0.040549
vn -0.673867 -0.682878 0.282099
vn -0.999998 0.001600 -0.000922
vn -0.994109 -0.107284 0.015414
vn -0.999376 -0.026661 -0.023186
vn -0.635344 0.743742 -0.207812
vn -0.040328 -0.671367 0.740027
vn 0.000484 -0.999316 0.036975
vn -0.665067 0.737539 0.117145
vn -0.999981 0.003320 0.005158
vn -0.999993 -0.003054 -0.002350
vn -0.999976 -0.006834 -0.001077
vn 0.469273 0.882998 -0.009928
vn 0.425411 0.904887 -0.014329
vn 0.267627 0.695995 0.666309
vn 0.940297 0.171733 0.293854
vn 0.791556 0.099279 0.602978
vn 0.277534 -0.682882 0.675757
vn 0.805617 -0.316064 0.501083
vn -0.999994 0.002567 -0.002529
vn -0.999776 -0.011620 0.017667
vn 0.958001 0.286431 0.013843
vn 0.915476 0.358261 0.183176
vn 0.521227 0.819219 0.239173
vn -0.684983 -0.133990 0.716132
vn 0.709693 0.066771 0.701339
vn 0.375139 0.025765 0.926611
vn -0.002013 0.036097 0.999346
vn -0.943958 0.302919 0.131087
vn -0.691612 0.168482 0.702344
vn -0.691258 0.712960 -0.117688
vn -0.657128 0.691016 0.301131
vn -0.036744 0.735555 0.676468
vn -0.692173 0.037504 0.720757
vn -0.997031 0.018862 0.074651
vn 0.007887 0.024180 0.999677
vn -0.675378 0.263399 0.688829
vn -0.385918 0.189278 0.902907
vn 0.001109 0.037095 0.999311
vn -0.002188 0.049286 0.998782
vn 0.007943 0.401022 0.916034
vn -0.727384 -0.016708 -0.686027
vn -0.974802 -0.056519 0.215792
vn 0.918735 -0.390498 0.058626
vn -0.015709 0.998117 -0.059291
vn -0.565314 -0.181615 -0.804634
vn -0.196367 -0.072734 -0.977829

# Mesh
g lowPoly
usemtl DefaultMaterial
f 1/1/1 2/2/2 3/3/3
f 2/4/2 4/5/4 5/6/5
f 1/1/1 6/7/6 2/2/2
f 7/8/7 8/9/8 1/1/1
f 9/10/9 10/11/10 8/9/8
f 11/12/11 12/13/12 13/14/13
f 11/15/11 9/10/9 8/9/8
f 13/14/13 14/16/14 11/12/11
f 15/17/15 14/16/14 13/14/13
f 3/3/3 2/2/2 16/18/16
f 17/19/17 18/20/18 19/21/19
f 2/22/2 6/23/6 20/24/20
f 2/2/2 5/25/5 21/26/21
f 22/27/22 23/28/23 24/29/24
f 25/30/25 18/20/18 9/31/9
f 26/32/26 4/33/4 27/34/27
f 28/35/28 29/36/29 21/37/21
f 21/37/21 29/36/29 16/38/16
f 30/39/30 23/40/23 22/41/22
f 31/42/31 14/43/14 32/44/32
f 26/45/26 33/46/33 28/35/28
f 34/47/34 31/48/31 32/49/32
f 35/50/35 20/51/20 19/52/19
f 28/35/28 36/53/36 29/36/29
f 30/54/30 37/55/37 36/53/36
f 38/56/38 24/57/24 23/40/23
f 24/57/24 39/58/39 40/59/40
f 41/60/41 34/47/34 39/58/39
f 42/61/42 36/53/36 28/35/28
f 42/61/42 30/54/30 36/53/36
f 43/62/43 41/60/41 39/58/39
f 44/63/44 35/64/35 18/20/18
f 45/65/45 42/61/42 46/66/46
f 46/66/46 42/61/42 28/35/28
f 47/67/47 30/54/30 42/61/42
f 31/68/31 48/69/48 9/31/9
f 35/50/35 49/70/49 4/33/4
f 43/62/43 39/58/39 50/71/50
f 51/72/51 52/73/52 53/74/53
f 54/75/54 44/63/44 18/20/18
f 44/76/44 49/70/49 35/50/35
f 55/77/55 50/71/50 56/78/56
f 49/70/49 57/79/57 27/34/27
f 58/80/58 41/81/41 59/82/59
f 48/69/48 58/80/58 51/72/51
f 51/72/51 60/83/60 52/73/52
f 61/84/61 62/85/62 63/86/63
f 42/61/42 33/46/33 64/87/64
f 65/88/65 66/89/66 67/90/67
f 66/91/66 55/77/55 56/78/56
f 43/92/43 68/93/68 69/94/69
f 58/80/58 60/83/60 51/72/51
f 64/87/64 70/95/70 71/96/71
f 61/84/61 63/86/63 72/97/72
f 71/96/71 72/98/72 64/87/64
f 72/98/72 63/99/63 64/87/64
f 32/49/32 15/17/15 22/41/22
f 22/41/22 34/47/34 32/49/32
f 73/100/73 50/101/50 55/102/55
f 68/93/68 59/82/59 69/94/69
f 74/103/74 64/87/64 63/99/63
f 75/104/75 76/105/76 73/100/73
f 77/106/77 78/107/78 79/108/79
f 79/109/79 80/110/80 81/111/81
f 78/107/78 59/82/59 82/112/82
f 83/113/83 82/112/82 59/82/59
f 84/114/84 76/105/76 63/115/63
f 76/105/76 74/116/74 63/115/63
f 85/117/85 73/100/73 86/118/86
f 59/82/59 68/93/68 73/119/73
f 87/120/87 73/100/73 88/121/88
f 87/120/87 86/118/86 73/100/73
f 78/122/78 87/120/87 89/123/89
f 1/1/1 90/124/90 19/125/19
f 18/20/18 17/19/17 10/126/10
f 28/35/28 21/37/21 4/5/4
f 14/16/14 15/17/15 32/49/32
f 2/2/2 21/26/21 16/18/16
f 16/18/16 7/8/7 3/3/3
f 7/8/7 1/1/1 3/3/3
f 15/17/15 12/13/12 37/127/37
f 16/18/16 36/128/36 7/8/7
f 36/128/36 12/129/12 8/9/8
f 12/13/12 15/17/15 13/14/13
f 36/128/36 8/9/8 7/8/7
f 8/9/8 12/129/12 11/15/11
f 14/130/14 9/31/9 11/131/11
f 37/127/37 12/13/12 36/132/36
f 22/41/22 15/17/15 37/127/37
f 18/20/18 10/126/10 9/31/9
f 6/7/6 1/1/1 20/133/20
f 2/134/2 20/51/20 4/33/4
f 26/45/26 28/35/28 4/5/4
f 29/36/29 36/53/36 16/38/16
f 19/21/19 90/135/90 17/19/17
f 21/37/21 5/6/5 4/5/4
f 37/55/37 30/54/30 22/136/22
f 31/68/31 9/31/9 14/130/14
f 24/57/24 40/59/40 22/41/22
f 40/59/40 39/58/39 22/41/22
f 33/46/33 26/45/26 62/137/62
f 34/47/34 22/41/22 39/58/39
f 35/50/35 4/33/4 20/51/20
f 26/32/26 27/34/27 62/85/62
f 35/64/35 19/21/19 18/20/18
f 33/46/33 46/66/46 28/35/28
f 9/31/9 48/69/48 25/30/25
f 4/33/4 49/70/49 27/34/27
f 47/138/47 23/40/23 30/39/30
f 56/78/56 50/71/50 39/58/39
f 25/30/25 48/69/48 53/74/53
f 48/69/48 51/72/51 53/74/53
f 33/46/33 45/65/45 46/66/46
f 47/138/47 24/57/24 38/56/38
f 39/58/39 24/57/24 56/78/56
f 41/81/41 91/139/91 34/140/34
f 58/141/58 31/142/31 91/143/91
f 48/69/48 31/68/31 58/80/58
f 63/86/63 62/85/62 27/34/27
f 70/95/70 33/46/33 61/144/61
f 92/145/92 47/67/47 42/61/42
f 25/30/25 54/75/54 18/20/18
f 49/70/49 44/76/44 54/146/54
f 74/103/74 92/145/92 42/61/42
f 92/145/92 74/103/74 67/147/67
f 92/148/92 67/149/67 66/91/66
f 66/91/66 24/57/24 92/148/92
f 24/57/24 66/91/66 56/78/56
f 43/92/43 69/94/69 41/81/41
f 60/83/60 53/74/53 52/73/52
f 54/75/54 25/30/25 77/106/77
f 57/79/57 49/70/49 54/146/54
f 64/87/64 33/46/33 70/95/70
f 74/116/74 75/104/75 67/90/67
f 65/150/65 67/151/67 75/152/75
f 75/104/75 66/89/66 65/88/65
f 69/94/69 59/82/59 41/81/41
f 77/106/77 53/74/53 78/107/78
f 93/153/93 27/34/27 57/79/57
f 27/34/27 93/153/93 63/86/63
f 70/95/70 61/144/61 71/96/71
f 64/87/64 74/103/74 42/61/42
f 71/96/71 61/144/61 72/98/72
f 63/86/63 93/153/93 79/109/79
f 73/100/73 66/89/66 75/104/75
f 73/119/73 43/92/43 50/154/50
f 53/74/53 60/83/60 78/107/78
f 57/155/57 54/75/54 77/106/77
f 77/156/77 79/109/79 93/153/93
f 74/116/74 76/105/76 75/104/75
f 68/93/68 43/92/43 73/119/73
f 58/80/58 78/107/78 60/83/60
f 79/109/79 81/111/81 63/86/63
f 66/89/66 73/100/73 55/102/55
f 58/80/58 59/82/59 78/107/78
f 63/115/63 89/123/89 84/114/84
f 63/115/63 81/157/81 89/123/89
f 78/107/78 80/158/80 79/108/79
f 83/113/83 59/82/59 85/159/85
f 82/112/82 83/113/83 86/160/86
f 80/161/80 78/122/78 81/157/81
f 88/121/88 73/100/73 76/105/76
f 85/159/85 59/82/59 73/119/73
f 78/122/78 82/162/82 87/120/87
f 78/122/78 89/123/89 81/157/81
f 82/162/82 86/118/86 87/120/87
f 87/120/87 84/114/84 89/123/89
f 87/120/87 76/105/76 84/114/84
f 76/105/76 87/120/87 88/121/88
f 77/106/77 93/163/93 57/155/57
f 8/9/8 90/124/90 1/1/1
f 8/9/8 94/164/94 90/124/90
f 17/165/17 95/166/95 10/11/10
f 95/166/95 17/165/17 94/164/94
f 8/9/8 10/11/10 95/166/95
f 94/164/94 8/9/8 95/166/95
f 90/135/90 94/167/94 17/19/17
f 1/1/1 19/125/19 20/133/20
f 38/56/38 23/40/23 47/138/47
f 31/142/31 34/168/34 91/143/91
f 62/137/62 61/144/61 33/46/33
f 45/65/45 33/46/33 42/61/42
f 47/138/47 92/148/92 24/57/24
f 41/81/41 58/80/58 91/139/91
f 77/106/77 25/30/25 53/74/53
f 86/169/86 83/170/83 85/171/85
